<svg xmlns="http://www.w3.org/2000/svg" width="159.116" height="23.017" viewBox="0 0 159.116 23.017"><g transform="translate(-124.854 -441.218)"><path d="M.567-4.914A5.657,5.657,0,0,1,.924-6.93,5.3,5.3,0,0,1,1.9-8.579,4.668,4.668,0,0,1,3.35-9.692a3.955,3.955,0,0,1,1.775-.41,4.005,4.005,0,0,1,1.669.347,4.541,4.541,0,0,1,1.4,1l.042-.021V-13.33h2.352V0H8.232V-1.029L8.19-1.05a5.1,5.1,0,0,1-1.4.966A3.905,3.905,0,0,1,5.124.273,3.955,3.955,0,0,1,3.35-.137,4.668,4.668,0,0,1,1.9-1.25,5.3,5.3,0,0,1,.924-2.9,5.657,5.657,0,0,1,.567-4.914Zm2.352,0a3.055,3.055,0,0,0,.22,1.155,3.083,3.083,0,0,0,.588.945,2.736,2.736,0,0,0,.861.63,2.423,2.423,0,0,0,1.04.231,2.47,2.47,0,0,0,1.061-.231,2.862,2.862,0,0,0,.872-.63,2.838,2.838,0,0,0,.588-.945,3.189,3.189,0,0,0,.21-1.155,3.165,3.165,0,0,0-.21-1.166,2.987,2.987,0,0,0-.588-.945,2.782,2.782,0,0,0-.872-.64A2.47,2.47,0,0,0,5.628-7.9a2.423,2.423,0,0,0-1.04.231,2.663,2.663,0,0,0-.861.64,3.26,3.26,0,0,0-.588.945A3.031,3.031,0,0,0,2.919-4.914Zm16.716-2.5A2.344,2.344,0,0,0,18.207-7.9a2.423,2.423,0,0,0-1.04.231,2.551,2.551,0,0,0-.851.64,3.2,3.2,0,0,0-.567.945,3.165,3.165,0,0,0-.21,1.166V0H13.188V-9.828H15.54v1.2l.042.021A4.3,4.3,0,0,1,17.01-9.723a3.877,3.877,0,0,1,1.68-.378,3.731,3.731,0,0,1,1.123.168,4.6,4.6,0,0,1,1.019.462ZM26.4-1.953A2.794,2.794,0,0,0,27.6-2.216a3.449,3.449,0,0,0,.976-.683l1.638,1.617a5.108,5.108,0,0,1-1.67,1.145A5.142,5.142,0,0,1,26.5.273a5.067,5.067,0,0,1-2.037-.41A5.269,5.269,0,0,1,22.816-1.25,5.269,5.269,0,0,1,21.7-2.9a5.015,5.015,0,0,1-.41-2.016,5.129,5.129,0,0,1,.4-2.016,5.305,5.305,0,0,1,1.082-1.649,5.084,5.084,0,0,1,1.607-1.113,4.817,4.817,0,0,1,1.974-.41,4.745,4.745,0,0,1,1.964.41,5.118,5.118,0,0,1,1.6,1.113A5.305,5.305,0,0,1,31-6.93a5.129,5.129,0,0,1,.4,2.016q0,.168-.01.283t-.01.179a.574.574,0,0,0-.021.126H23.646a1.793,1.793,0,0,0,.22.84,2.668,2.668,0,0,0,.6.756,3.317,3.317,0,0,0,.882.557A2.593,2.593,0,0,0,26.4-1.953Zm2.457-4.326.021-.042A3.248,3.248,0,0,0,27.814-7.5a2.576,2.576,0,0,0-1.459-.441,2.591,2.591,0,0,0-1.48.431,3.365,3.365,0,0,0-1.061,1.186l.021.042Zm3.255,1.365a5.657,5.657,0,0,1,.357-2.016,5.3,5.3,0,0,1,.977-1.649,4.668,4.668,0,0,1,1.449-1.113,3.955,3.955,0,0,1,1.775-.41,3.926,3.926,0,0,1,1.659.357,4.566,4.566,0,0,1,1.386.987l.042-.021v-1.05H42.1V0H39.753V-1.008l-.042-.042a4.751,4.751,0,0,1-1.386.966,3.926,3.926,0,0,1-1.659.357,3.955,3.955,0,0,1-1.775-.41A4.668,4.668,0,0,1,33.443-1.25,5.3,5.3,0,0,1,32.466-2.9,5.657,5.657,0,0,1,32.109-4.914Zm2.352,0a3.031,3.031,0,0,0,.221,1.165,3.116,3.116,0,0,0,.588.935,2.736,2.736,0,0,0,.861.63,2.423,2.423,0,0,0,1.039.231,2.47,2.47,0,0,0,1.061-.231,2.736,2.736,0,0,0,.861-.63,2.958,2.958,0,0,0,.577-.935,3.165,3.165,0,0,0,.21-1.165,3.165,3.165,0,0,0-.21-1.166,3.09,3.09,0,0,0-.577-.945,2.663,2.663,0,0,0-.861-.64A2.47,2.47,0,0,0,37.17-7.9a2.423,2.423,0,0,0-1.039.231,2.663,2.663,0,0,0-.861.64,3.26,3.26,0,0,0-.588.945A3.031,3.031,0,0,0,34.461-4.914Zm17.955-3.4a5.222,5.222,0,0,1,1.407-1.291,3.18,3.18,0,0,1,1.7-.494q.21,0,.6.031a3.547,3.547,0,0,1,.85.189,4.512,4.512,0,0,1,.945.462,3.033,3.033,0,0,1,.871.872,5.009,5.009,0,0,1,.641,1.428,7.563,7.563,0,0,1,.252,2.1V0H57.33V-5.019A4.551,4.551,0,0,0,57.1-6.636a2.108,2.108,0,0,0-.556-.861,1.452,1.452,0,0,0-.672-.336,3.337,3.337,0,0,0-.577-.063,1.506,1.506,0,0,0-.8.231,2.188,2.188,0,0,0-.651.62,3.151,3.151,0,0,0-.431.913,3.854,3.854,0,0,0-.157,1.113V0H50.925V-5.019q0-.441-.042-.956a2.529,2.529,0,0,0-.252-.935,1.861,1.861,0,0,0-.619-.7A1.948,1.948,0,0,0,48.888-7.9a1.454,1.454,0,0,0-.788.231,2.24,2.24,0,0,0-.64.62,3.151,3.151,0,0,0-.431.913,3.854,3.854,0,0,0-.157,1.113V0H44.52V-9.828h2.352v1.281l.042.021a4.572,4.572,0,0,1,1.207-1.155,2.564,2.564,0,0,1,1.4-.42,3.251,3.251,0,0,1,1.617.452,2.934,2.934,0,0,1,1.218,1.333ZM71.5-4.914A5.015,5.015,0,0,1,71.1-2.9,5.269,5.269,0,0,1,69.982-1.25,5.269,5.269,0,0,1,68.334-.137,5.067,5.067,0,0,1,66.3.273a5.067,5.067,0,0,1-2.037-.41A5.269,5.269,0,0,1,62.611-1.25,5.269,5.269,0,0,1,61.5-2.9a5.015,5.015,0,0,1-.41-2.016A5.015,5.015,0,0,1,61.5-6.93a5.269,5.269,0,0,1,1.113-1.649A5.269,5.269,0,0,1,64.26-9.692,5.067,5.067,0,0,1,66.3-10.1a5.067,5.067,0,0,1,2.037.41,5.269,5.269,0,0,1,1.648,1.113A5.269,5.269,0,0,1,71.1-6.93,5.015,5.015,0,0,1,71.5-4.914Zm-2.352,0a3.032,3.032,0,0,0-.22-1.166,3.043,3.043,0,0,0-.609-.945,2.8,2.8,0,0,0-.914-.64A2.733,2.733,0,0,0,66.3-7.9a2.733,2.733,0,0,0-1.113.231,2.8,2.8,0,0,0-.913.64,3.043,3.043,0,0,0-.609.945,3.031,3.031,0,0,0-.221,1.166,3.031,3.031,0,0,0,.221,1.165,2.916,2.916,0,0,0,.609.935,2.88,2.88,0,0,0,.913.63,2.733,2.733,0,0,0,1.113.231,2.733,2.733,0,0,0,1.113-.231,2.88,2.88,0,0,0,.914-.63,2.916,2.916,0,0,0,.609-.935A3.032,3.032,0,0,0,69.153-4.914Zm10.458-2.5A2.344,2.344,0,0,0,78.183-7.9a2.423,2.423,0,0,0-1.039.231,2.55,2.55,0,0,0-.851.64,3.2,3.2,0,0,0-.567.945,3.165,3.165,0,0,0-.21,1.166V0H73.164V-9.828h2.352v1.2l.042.021a4.3,4.3,0,0,1,1.428-1.113,3.877,3.877,0,0,1,1.68-.378,3.731,3.731,0,0,1,1.124.168,4.6,4.6,0,0,1,1.018.462ZM82.32,0V-9.828h2.352V0Zm-.294-13.062a1.382,1.382,0,0,1,.431-1.029,1.434,1.434,0,0,1,1.039-.42,1.434,1.434,0,0,1,1.039.42,1.382,1.382,0,0,1,.431,1.029,1.382,1.382,0,0,1-.431,1.029,1.434,1.434,0,0,1-1.039.42,1.434,1.434,0,0,1-1.039-.42A1.382,1.382,0,0,1,82.026-13.062ZM91.539-1.953a2.794,2.794,0,0,0,1.208-.263,3.449,3.449,0,0,0,.977-.683l1.638,1.617a5.108,5.108,0,0,1-1.67,1.145,5.142,5.142,0,0,1-2.048.41,5.067,5.067,0,0,1-2.037-.41A5.269,5.269,0,0,1,87.959-1.25,5.269,5.269,0,0,1,86.846-2.9a5.015,5.015,0,0,1-.41-2.016,5.129,5.129,0,0,1,.4-2.016,5.305,5.305,0,0,1,1.081-1.649,5.084,5.084,0,0,1,1.606-1.113A4.817,4.817,0,0,1,91.5-10.1a4.745,4.745,0,0,1,1.964.41,5.118,5.118,0,0,1,1.6,1.113A5.305,5.305,0,0,1,96.138-6.93a5.129,5.129,0,0,1,.4,2.016q0,.168-.01.283t-.01.179a.574.574,0,0,0-.021.126H88.788a1.793,1.793,0,0,0,.221.84,2.668,2.668,0,0,0,.6.756,3.316,3.316,0,0,0,.882.557A2.593,2.593,0,0,0,91.539-1.953ZM94-6.279l.021-.042A3.248,3.248,0,0,0,92.957-7.5a2.576,2.576,0,0,0-1.46-.441,2.591,2.591,0,0,0-1.48.431,3.366,3.366,0,0,0-1.061,1.186l.021.042ZM103.068-7.9a2.113,2.113,0,0,0-.977.231,2.58,2.58,0,0,0-.8.64,3.153,3.153,0,0,0-.546.945,3.313,3.313,0,0,0-.2,1.166V0H98.2V-9.828h2.352v1.2l.042.021a4.2,4.2,0,0,1,1.376-1.113,3.587,3.587,0,0,1,1.606-.378,4.887,4.887,0,0,1,1.774.283,3.642,3.642,0,0,1,1.208.746,3.391,3.391,0,0,1,.745,1.029,5.64,5.64,0,0,1,.388,1.123,6.7,6.7,0,0,1,.158,1.04q.032.483.032.777V0h-2.352V-4.914q0-.441-.042-.966a2.486,2.486,0,0,0-.273-.966,1.921,1.921,0,0,0-.735-.746A2.727,2.727,0,0,0,103.068-7.9Zm10.962.336V0h-2.352V-7.56h-2.394V-9.828h2.394v-3.41h2.352v3.41h2.394V-7.56Zm8.211,5.607a2.794,2.794,0,0,0,1.208-.263,3.449,3.449,0,0,0,.977-.683l1.638,1.617a5.108,5.108,0,0,1-1.67,1.145,5.142,5.142,0,0,1-2.048.41,5.067,5.067,0,0,1-2.037-.41A5.269,5.269,0,0,1,118.66-1.25,5.269,5.269,0,0,1,117.548-2.9a5.015,5.015,0,0,1-.41-2.016,5.129,5.129,0,0,1,.4-2.016,5.305,5.305,0,0,1,1.081-1.649,5.084,5.084,0,0,1,1.606-1.113,4.817,4.817,0,0,1,1.974-.41,4.745,4.745,0,0,1,1.964.41,5.118,5.118,0,0,1,1.6,1.113A5.305,5.305,0,0,1,126.84-6.93a5.129,5.129,0,0,1,.4,2.016q0,.168-.01.283t-.01.179a.574.574,0,0,0-.021.126H119.49a1.793,1.793,0,0,0,.221.84,2.668,2.668,0,0,0,.6.756,3.316,3.316,0,0,0,.882.557A2.593,2.593,0,0,0,122.241-1.953ZM124.7-6.279l.021-.042A3.248,3.248,0,0,0,123.659-7.5a2.576,2.576,0,0,0-1.46-.441,2.591,2.591,0,0,0-1.48.431,3.366,3.366,0,0,0-1.061,1.186l.021.042Zm3.255,1.365a5.657,5.657,0,0,1,.357-2.016,5.3,5.3,0,0,1,.977-1.649,4.668,4.668,0,0,1,1.449-1.113,3.955,3.955,0,0,1,1.775-.41,4.005,4.005,0,0,1,1.669.347,4.541,4.541,0,0,1,1.4,1l.042-.021V-13.33h2.352V0h-2.352V-1.029l-.042-.021a5.1,5.1,0,0,1-1.4.966,3.905,3.905,0,0,1-1.669.357,3.955,3.955,0,0,1-1.775-.41,4.668,4.668,0,0,1-1.449-1.113A5.3,5.3,0,0,1,128.31-2.9,5.657,5.657,0,0,1,127.953-4.914Zm2.352,0a3.055,3.055,0,0,0,.22,1.155,3.083,3.083,0,0,0,.588.945,2.737,2.737,0,0,0,.861.63,2.423,2.423,0,0,0,1.04.231,2.47,2.47,0,0,0,1.061-.231,2.862,2.862,0,0,0,.871-.63,2.838,2.838,0,0,0,.588-.945,3.189,3.189,0,0,0,.21-1.155,3.165,3.165,0,0,0-.21-1.166,2.987,2.987,0,0,0-.588-.945,2.782,2.782,0,0,0-.871-.64,2.47,2.47,0,0,0-1.061-.231,2.423,2.423,0,0,0-1.04.231,2.664,2.664,0,0,0-.861.64,3.26,3.26,0,0,0-.588.945A3.032,3.032,0,0,0,130.305-4.914Z" transform="translate(146 460)" fill="#333"/><path d="M0,11.08S1.19,3.042,6.266-.488s13.419,0,13.419,0S18.144,8.38,13.419,11.08,0,11.08,0,11.08Z" transform="translate(136.597 441.819) rotate(73)" fill="#6fb2da"/></g></svg>