<svg xmlns="http://www.w3.org/2000/svg" width="161.259" height="12.003" viewBox="0 0 161.259 12.003"><path d="M8.749,12.82A1.429,1.429,0,0,1,7.711,12.4a1.369,1.369,0,0,1-.432-1.013,1.433,1.433,0,0,1,.432-1.038,1.4,1.4,0,0,1,1.038-.44,1.363,1.363,0,0,1,1.013.436,1.443,1.443,0,0,1,.423,1.042A1.445,1.445,0,0,1,8.749,12.82Zm0-4.516a1.429,1.429,0,0,1-1.038-.423A1.369,1.369,0,0,1,7.28,6.869,1.481,1.481,0,0,1,8.749,5.408a1.369,1.369,0,0,1,1.013.432,1.419,1.419,0,0,1,.423,1.029A1.445,1.445,0,0,1,8.749,8.3ZM4.092,8.33a1.429,1.429,0,0,1-1.038-.423,1.369,1.369,0,0,1-.432-1.013,1.433,1.433,0,0,1,.432-1.038,1.4,1.4,0,0,1,1.038-.44A1.363,1.363,0,0,1,5.1,5.852a1.443,1.443,0,0,1,.423,1.042A1.445,1.445,0,0,1,4.092,8.33ZM16.9,12.82a1.429,1.429,0,0,1-1.038-.423,1.369,1.369,0,0,1-.432-1.013,1.433,1.433,0,0,1,.432-1.038,1.4,1.4,0,0,1,1.038-.44,1.363,1.363,0,0,1,1.013.436,1.443,1.443,0,0,1,.423,1.042A1.445,1.445,0,0,1,16.9,12.82Zm0,4.59a1.429,1.429,0,0,1-1.038-.423,1.378,1.378,0,0,1-.432-1.021A1.488,1.488,0,0,1,16.9,14.505a1.363,1.363,0,0,1,1.013.436,1.423,1.423,0,0,1,.423,1.025A1.445,1.445,0,0,1,16.9,17.411Zm4.657-4.59A1.429,1.429,0,0,1,20.52,12.4a1.369,1.369,0,0,1-.432-1.013,1.433,1.433,0,0,1,.432-1.038,1.4,1.4,0,0,1,1.038-.44,1.363,1.363,0,0,1,1.013.436,1.443,1.443,0,0,1,.423,1.042,1.445,1.445,0,0,1-1.436,1.436ZM16.9,8.33a1.429,1.429,0,0,1-1.038-.423,1.369,1.369,0,0,1-.432-1.013,1.433,1.433,0,0,1,.432-1.038,1.4,1.4,0,0,1,1.038-.44,1.363,1.363,0,0,1,1.013.436,1.443,1.443,0,0,1,.423,1.042A1.445,1.445,0,0,1,16.9,8.33ZM34.365,12.82a1.429,1.429,0,0,1-1.038-.423,1.369,1.369,0,0,1-.432-1.013,1.433,1.433,0,0,1,.432-1.038,1.4,1.4,0,0,1,1.038-.44,1.363,1.363,0,0,1,1.013.436,1.443,1.443,0,0,1,.423,1.042,1.445,1.445,0,0,1-1.436,1.436ZM29.708,8.33a1.429,1.429,0,0,1-1.038-.423,1.369,1.369,0,0,1-.432-1.013,1.433,1.433,0,0,1,.432-1.038,1.4,1.4,0,0,1,1.038-.44,1.363,1.363,0,0,1,1.013.436,1.443,1.443,0,0,1,.423,1.042A1.445,1.445,0,0,1,29.708,8.33Zm12.808,0a1.429,1.429,0,0,1-1.038-.423,1.369,1.369,0,0,1-.432-1.013,1.433,1.433,0,0,1,.432-1.038,1.4,1.4,0,0,1,1.038-.44,1.363,1.363,0,0,1,1.013.436,1.443,1.443,0,0,1,.423,1.042A1.445,1.445,0,0,1,42.517,8.33Zm12.808,9.081a1.429,1.429,0,0,1-1.038-.423,1.378,1.378,0,0,1-.432-1.021,1.488,1.488,0,0,1,1.469-1.461,1.363,1.363,0,0,1,1.013.436,1.423,1.423,0,0,1,.423,1.025,1.445,1.445,0,0,1-1.436,1.444ZM59.981,8.3a1.429,1.429,0,0,1-1.038-.423,1.369,1.369,0,0,1-.432-1.013,1.481,1.481,0,0,1,1.469-1.461,1.369,1.369,0,0,1,1.013.432,1.419,1.419,0,0,1,.423,1.029A1.445,1.445,0,0,1,59.981,8.3Zm-4.657.025a1.429,1.429,0,0,1-1.038-.423,1.369,1.369,0,0,1-.432-1.013,1.433,1.433,0,0,1,.432-1.038,1.4,1.4,0,0,1,1.038-.44,1.363,1.363,0,0,1,1.013.436,1.443,1.443,0,0,1,.423,1.042A1.445,1.445,0,0,1,55.325,8.33Zm12.808,9.081a1.429,1.429,0,0,1-1.038-.423,1.378,1.378,0,0,1-.432-1.021,1.488,1.488,0,0,1,1.469-1.461,1.363,1.363,0,0,1,1.013.436,1.423,1.423,0,0,1,.423,1.025,1.445,1.445,0,0,1-1.436,1.444Zm4.657-4.59a1.429,1.429,0,0,1-1.038-.423,1.369,1.369,0,0,1-.432-1.013,1.433,1.433,0,0,1,.432-1.038,1.4,1.4,0,0,1,1.038-.44,1.363,1.363,0,0,1,1.013.436,1.443,1.443,0,0,1,.423,1.042A1.445,1.445,0,0,1,72.79,12.82ZM68.133,8.33A1.429,1.429,0,0,1,67.1,7.906a1.369,1.369,0,0,1-.432-1.013A1.433,1.433,0,0,1,67.1,5.856a1.4,1.4,0,0,1,1.038-.44,1.363,1.363,0,0,1,1.013.436,1.443,1.443,0,0,1,.423,1.042A1.445,1.445,0,0,1,68.133,8.33ZM80.941,12.82A1.429,1.429,0,0,1,79.9,12.4a1.369,1.369,0,0,1-.432-1.013,1.433,1.433,0,0,1,.432-1.038,1.4,1.4,0,0,1,1.038-.44,1.363,1.363,0,0,1,1.013.436,1.443,1.443,0,0,1,.423,1.042,1.445,1.445,0,0,1-1.436,1.436Zm0,4.59a1.429,1.429,0,0,1-1.038-.423,1.378,1.378,0,0,1-.432-1.021,1.488,1.488,0,0,1,1.469-1.461,1.363,1.363,0,0,1,1.013.436,1.423,1.423,0,0,1,.423,1.025,1.445,1.445,0,0,1-1.436,1.444ZM85.6,12.82A1.429,1.429,0,0,1,84.56,12.4a1.369,1.369,0,0,1-.432-1.013,1.433,1.433,0,0,1,.432-1.038,1.4,1.4,0,0,1,1.038-.44,1.363,1.363,0,0,1,1.013.436,1.443,1.443,0,0,1,.423,1.042A1.445,1.445,0,0,1,85.6,12.82ZM80.941,8.33A1.429,1.429,0,0,1,79.9,7.906a1.369,1.369,0,0,1-.432-1.013A1.433,1.433,0,0,1,79.9,5.856a1.4,1.4,0,0,1,1.038-.44,1.363,1.363,0,0,1,1.013.436,1.443,1.443,0,0,1,.423,1.042A1.445,1.445,0,0,1,80.941,8.33ZM93.749,12.82a1.429,1.429,0,0,1-1.038-.423,1.369,1.369,0,0,1-.432-1.013,1.433,1.433,0,0,1,.432-1.038,1.4,1.4,0,0,1,1.038-.44,1.363,1.363,0,0,1,1.013.436,1.443,1.443,0,0,1,.423,1.042,1.445,1.445,0,0,1-1.436,1.436ZM98.406,8.3a1.429,1.429,0,0,1-1.038-.423,1.369,1.369,0,0,1-.432-1.013,1.481,1.481,0,0,1,1.469-1.461,1.369,1.369,0,0,1,1.013.432,1.419,1.419,0,0,1,.423,1.029A1.445,1.445,0,0,1,98.406,8.3Zm12.808,4.516a1.429,1.429,0,0,1-1.038-.423,1.369,1.369,0,0,1-.432-1.013,1.433,1.433,0,0,1,.432-1.038,1.4,1.4,0,0,1,1.038-.44,1.363,1.363,0,0,1,1.013.436,1.443,1.443,0,0,1,.423,1.042,1.445,1.445,0,0,1-1.436,1.436ZM106.557,8.33a1.429,1.429,0,0,1-1.038-.423,1.369,1.369,0,0,1-.432-1.013,1.433,1.433,0,0,1,.432-1.038,1.4,1.4,0,0,1,1.038-.44,1.363,1.363,0,0,1,1.013.436,1.443,1.443,0,0,1,.423,1.042,1.445,1.445,0,0,1-1.436,1.436Zm12.808,9.081a1.429,1.429,0,0,1-1.038-.423,1.378,1.378,0,0,1-.432-1.021,1.488,1.488,0,0,1,1.469-1.461,1.363,1.363,0,0,1,1.013.436,1.423,1.423,0,0,1,.423,1.025,1.445,1.445,0,0,1-1.436,1.444Zm4.657-4.59a1.429,1.429,0,0,1-1.038-.423,1.369,1.369,0,0,1-.432-1.013,1.433,1.433,0,0,1,.432-1.038,1.4,1.4,0,0,1,1.038-.44,1.363,1.363,0,0,1,1.013.436,1.443,1.443,0,0,1,.423,1.042,1.445,1.445,0,0,1-1.436,1.436Zm0-4.516a1.429,1.429,0,0,1-1.038-.423,1.369,1.369,0,0,1-.432-1.013,1.481,1.481,0,0,1,1.469-1.461,1.369,1.369,0,0,1,1.013.432,1.419,1.419,0,0,1,.423,1.029A1.445,1.445,0,0,1,124.022,8.3Zm-4.657.025a1.429,1.429,0,0,1-1.038-.423,1.369,1.369,0,0,1-.432-1.013,1.433,1.433,0,0,1,.432-1.038,1.4,1.4,0,0,1,1.038-.44,1.363,1.363,0,0,1,1.013.436,1.443,1.443,0,0,1,.423,1.042,1.445,1.445,0,0,1-1.436,1.436Zm12.808,4.491a1.429,1.429,0,0,1-1.038-.423,1.369,1.369,0,0,1-.432-1.013,1.433,1.433,0,0,1,.432-1.038,1.4,1.4,0,0,1,1.038-.44,1.363,1.363,0,0,1,1.013.436,1.443,1.443,0,0,1,.423,1.042,1.445,1.445,0,0,1-1.436,1.436Zm0,4.59a1.429,1.429,0,0,1-1.038-.423,1.378,1.378,0,0,1-.432-1.021,1.488,1.488,0,0,1,1.469-1.461,1.363,1.363,0,0,1,1.013.436,1.423,1.423,0,0,1,.423,1.025,1.445,1.445,0,0,1-1.436,1.444Zm4.657-4.59a1.429,1.429,0,0,1-1.038-.423,1.369,1.369,0,0,1-.432-1.013,1.433,1.433,0,0,1,.432-1.038,1.4,1.4,0,0,1,1.038-.44,1.363,1.363,0,0,1,1.013.436,1.443,1.443,0,0,1,.423,1.042,1.445,1.445,0,0,1-1.436,1.436Zm0-4.516a1.429,1.429,0,0,1-1.038-.423,1.369,1.369,0,0,1-.432-1.013,1.481,1.481,0,0,1,1.469-1.461,1.369,1.369,0,0,1,1.013.432,1.419,1.419,0,0,1,.423,1.029A1.445,1.445,0,0,1,136.83,8.3Zm12.808,4.516A1.429,1.429,0,0,1,148.6,12.4a1.369,1.369,0,0,1-.432-1.013,1.433,1.433,0,0,1,.432-1.038,1.4,1.4,0,0,1,1.038-.44,1.363,1.363,0,0,1,1.013.436,1.443,1.443,0,0,1,.423,1.042,1.445,1.445,0,0,1-1.436,1.436ZM144.981,8.33a1.429,1.429,0,0,1-1.038-.423,1.369,1.369,0,0,1-.432-1.013,1.433,1.433,0,0,1,.432-1.038,1.4,1.4,0,0,1,1.038-.44,1.363,1.363,0,0,1,1.013.436,1.443,1.443,0,0,1,.423,1.042,1.445,1.445,0,0,1-1.436,1.436Zm17.465,4.491a1.429,1.429,0,0,1-1.038-.423,1.369,1.369,0,0,1-.432-1.013,1.433,1.433,0,0,1,.432-1.038,1.4,1.4,0,0,1,1.038-.44,1.363,1.363,0,0,1,1.013.436,1.443,1.443,0,0,1,.423,1.042,1.445,1.445,0,0,1-1.436,1.436Zm0-4.516a1.429,1.429,0,0,1-1.038-.423,1.369,1.369,0,0,1-.432-1.013,1.481,1.481,0,0,1,1.469-1.461,1.369,1.369,0,0,1,1.013.432,1.419,1.419,0,0,1,.423,1.029A1.445,1.445,0,0,1,162.446,8.3Zm-4.657.025a1.429,1.429,0,0,1-1.038-.423,1.369,1.369,0,0,1-.432-1.013,1.433,1.433,0,0,1,.432-1.038,1.4,1.4,0,0,1,1.038-.44,1.363,1.363,0,0,1,1.013.436,1.443,1.443,0,0,1,.423,1.042A1.445,1.445,0,0,1,157.79,8.33Z" transform="translate(-2.623 -5.408)" fill="#333"/></svg>